<svg width="20" height="20" viewBox="0 0 20 20" fill="none" xmlns="http://www.w3.org/2000/svg">
    <path d="M10.4994 3.50146C10.4994 3.14845 10.1435 2.9066 9.81526 3.03659L3.94765 5.36054C3.37566 5.58709 3 6.13993 3 6.75514V12.4978C3 12.8509 3.35606 13.0927 3.68429 12.9626L4 12.8374V13.9121C3.03035 14.2566 2 13.5381 2 12.4978V6.75514C2 5.72978 2.6261 4.80838 3.57942 4.43081L9.44703 2.10686C10.4024 1.72847 11.436 2.40033 11.4966 3.40802L10.4994 3.80297V3.50146ZM13.4994 5.50195C13.4994 5.14894 13.1435 4.90709 12.8153 5.03708L6.63177 7.48614C6.25044 7.63717 6 8.00573 6 8.41588V14.4983C6 14.8514 6.35606 15.0932 6.68429 14.9631L8 14.4414V15.5171L7.05288 15.8927C6.06819 16.2831 5 15.5575 5 14.4983V8.41588C5 7.59559 5.50088 6.85847 6.26353 6.55641L12.447 4.10735C13.4316 3.71738 14.4994 4.44293 14.4994 5.50195V5.60437L13.4994 6.00043V5.50195ZM16.3159 7.03607C16.6441 6.90608 17 7.14793 17 7.50094V10.2075C17.3486 10.3061 17.6832 10.4383 18 10.6002V7.50094C18 6.44192 16.9323 5.71637 15.9476 6.10634L9.94765 8.48272C9.37566 8.70926 9 9.26211 9 9.87732V16.5005C9 17.3975 9.76602 18.0553 10.5987 17.9986C10.4187 17.646 10.2756 17.2715 10.1745 16.8801C10.0691 16.79 10 16.656 10 16.5005V9.87732C10 9.67225 10.1252 9.48797 10.3159 9.41245L16.3159 7.03607ZM20 15.5005C20 17.9858 17.9853 20.0005 15.5 20.0005C13.0147 20.0005 11 17.9858 11 15.5005C11 13.0152 13.0147 11.0005 15.5 11.0005C17.9853 11.0005 20 13.0152 20 15.5005ZM16 13.5005C16 13.2243 15.7761 13.0005 15.5 13.0005C15.2239 13.0005 15 13.2243 15 13.5005V15.0005H13.5C13.2239 15.0005 13 15.2243 13 15.5005C13 15.7766 13.2239 16.0005 13.5 16.0005H15V17.5005C15 17.7766 15.2239 18.0005 15.5 18.0005C15.7761 18.0005 16 17.7766 16 17.5005V16.0005H17.5C17.7761 16.0005 18 15.7766 18 15.5005C18 15.2243 17.7761 15.0005 17.5 15.0005H16V13.5005Z" fill="white"/>
</svg>
