<svg width="20" height="20" viewBox="0 0 20 20" fill="none" xmlns="http://www.w3.org/2000/svg">
    <path fill-rule="evenodd" clip-rule="evenodd" d="M10.0113 5.93663C10.4715 5.93663 10.8446 5.56353 10.8446 5.10329C10.8446 4.64305 10.4715 4.26996 10.0113 4.26996C9.55107 4.26996 9.17798 4.64305 9.17798 5.10329C9.17798 5.56353 9.55107 5.93663 10.0113 5.93663ZM16.011 13.4022V8.06159H16.104C16.9972 8.06159 17.3629 6.91417 16.6344 6.3973L10.7828 2.24588C10.3207 1.91805 9.70189 1.91804 9.2398 2.24586L3.38801 6.39729C2.78946 6.82191 2.92946 7.67215 3.49381 7.96207C4.353 7.39736 5.3799 7.06691 6.48365 7.06159H4.1799L9.81841 3.06147C9.93394 2.97951 10.0886 2.97951 10.2042 3.06147L15.8425 7.06159H12.5131L12.511 7.06158L12.5089 7.06159H6.53784C8.10318 7.06914 9.51395 7.73061 10.511 8.78684V8.06159H12.011L12.011 13.0616H11.9883C11.9574 13.405 11.8948 13.7393 11.8037 14.0616H14.8443C15.4887 14.0616 16.011 14.5839 16.011 15.2283V16.0616H10.7535C10.4402 16.441 10.0769 16.7777 9.67373 17.0616H16.511C16.7871 17.0616 17.011 16.8377 17.011 16.5616V15.2283C17.011 14.4612 16.6124 13.7872 16.011 13.4022ZM15.011 8.06159V13.0679C14.956 13.0637 14.9004 13.0616 14.8443 13.0616H13.011L13.011 8.06159H15.011ZM11 12.5615C11 15.0468 8.98528 17.0615 6.5 17.0615C4.01472 17.0615 2 15.0468 2 12.5615C2 10.0762 4.01472 8.06152 6.5 8.06152C8.98528 8.06152 11 10.0762 11 12.5615ZM7 10.0615C7 9.78538 6.77614 9.56152 6.5 9.56152C6.22386 9.56152 6 9.78538 6 10.0615V12.0615H4C3.72386 12.0615 3.5 12.2854 3.5 12.5615C3.5 12.8377 3.72386 13.0615 4 13.0615H6V15.0615C6 15.3377 6.22386 15.5615 6.5 15.5615C6.77614 15.5615 7 15.3377 7 15.0615V13.0615H9C9.27614 13.0615 9.5 12.8377 9.5 12.5615C9.5 12.2854 9.27614 12.0615 9 12.0615H7V10.0615Z" fill="white"/>
</svg>
