<svg width="20" height="20" viewBox="0 0 20 20" fill="none" xmlns="http://www.w3.org/2000/svg">
    <rect width="20" height="20" rx="10" fill="#9CA3AF"/>
    <path d="M7.23077 10C7.03959 10 6.88462 10.1679 6.88462 10.375C6.88462 10.5821 7.03959 10.75 7.23077 10.75C7.42194 10.75 7.57692 10.5821 7.57692 10.375C7.57692 10.1679 7.42194 10 7.23077 10ZM6.88462 11.875C6.88462 11.6679 7.03959 11.5 7.23077 11.5C7.42194 11.5 7.57692 11.6679 7.57692 11.875C7.57692 12.0821 7.42194 12.25 7.23077 12.25C7.03959 12.25 6.88462 12.0821 6.88462 11.875ZM8.26923 10.375C8.26923 10.1679 8.42421 10 8.61538 10H11.3846C11.5758 10 11.7308 10.1679 11.7308 10.375C11.7308 10.5821 11.5758 10.75 11.3846 10.75H8.61538C8.42421 10.75 8.26923 10.5821 8.26923 10.375ZM8.61538 11.5C8.42421 11.5 8.26923 11.6679 8.26923 11.875C8.26923 12.0821 8.42421 12.25 8.61538 12.25H11.3846C11.5758 12.25 11.7308 12.0821 11.7308 11.875C11.7308 11.6679 11.5758 11.5 11.3846 11.5H8.61538ZM6.88462 4C6.11991 4 5.5 4.67157 5.5 5.5V13C5.5 13.8284 6.11991 14.5 6.88462 14.5H11.7308C12.4955 14.5 13.1154 13.8284 13.1154 13V8.06066C13.1154 7.76229 13.006 7.47614 12.8112 7.26517L10.1014 4.3295C9.90664 4.11853 9.6425 4 9.36708 4H6.88462ZM6.19231 5.5C6.19231 5.08579 6.50226 4.75 6.88462 4.75H8.96154V7.375C8.96154 7.99632 9.42647 8.5 10 8.5H12.4231V13C12.4231 13.4142 12.1131 13.75 11.7308 13.75H6.88462C6.50226 13.75 6.19231 13.4142 6.19231 13V5.5ZM9.65385 7.375V4.90533L12.2797 7.75H10C9.80883 7.75 9.65385 7.58211 9.65385 7.375ZM13.8077 8.5C14.19 8.5 14.5 8.83578 14.5 9.25V13.0455C14.5 14.6772 13.279 16 11.7727 16H7.57692C7.19457 16 6.88462 15.6642 6.88462 15.25H11.7308C12.8778 15.25 13.8077 14.2426 13.8077 13V8.5Z" fill="white"/>
</svg>
