<svg width="20" height="20" viewBox="0 0 20 20" fill="none" xmlns="http://www.w3.org/2000/svg">
    <rect width="20" height="20" rx="10" fill="#9CA3AF"/>
    <path d="M14.2426 12.7134C16.5858 10.4913 16.5858 6.88863 14.2426 4.66656C11.8995 2.44448 8.10051 2.44448 5.75736 4.66656C3.41421 6.88863 3.41421 10.4913 5.75736 12.7134L7.0611 13.9312L8.81207 15.5441L8.92593 15.6398C9.59001 16.15 10.5625 16.1182 11.1881 15.5443L13.2763 13.6187L14.2426 12.7134ZM10 11.125C8.57984 11.125 7.42857 10.0337 7.42857 8.6875C7.42857 7.34131 8.57984 6.25 10 6.25C11.4202 6.25 12.5714 7.34131 12.5714 8.6875C12.5714 10.0337 11.4202 11.125 10 11.125Z" fill="white"/>
</svg>
