<svg width="21" height="20" viewBox="0 0 21 20" fill="none" xmlns="http://www.w3.org/2000/svg">
    <path fill-rule="evenodd" clip-rule="evenodd" d="M15 11C14.7239 11 14.5 11.2239 14.5 11.5C14.5 11.7761 14.7239 12 15 12H16C16.2761 12 16.5 11.7761 16.5 11.5C16.5 11.2239 16.2761 11 16 11H15ZM4.5 4.5C4.5 3.67157 5.17157 3 6 3H15.5C16.6046 3 17.5 3.89543 17.5 5V5.26756C18.0978 5.61337 18.5 6.25972 18.5 7V15C18.5 16.1046 17.6046 17 16.5 17H11.1631C11.5662 16.7161 11.9295 16.3794 12.2428 16H16.5C17.0523 16 17.5 15.5523 17.5 15V7C17.5 6.44772 17.0523 6 16.5 6H6C5.82468 6 5.65639 5.96992 5.5 5.91465V7.59971C5.14222 7.78261 4.80711 8.00353 4.5 8.25716V4.5ZM15.5 4H6C5.72386 4 5.5 4.22386 5.5 4.5C5.5 4.77614 5.72386 5 6 5H16.5C16.5 4.44772 16.0523 4 15.5 4ZM12.5 12.5C12.5 14.9853 10.4853 17 8 17C5.51472 17 3.5 14.9853 3.5 12.5C3.5 10.0147 5.51472 8 8 8C10.4853 8 12.5 10.0147 12.5 12.5ZM8.5 10C8.5 9.72386 8.27614 9.5 8 9.5C7.72386 9.5 7.5 9.72386 7.5 10V12H5.5C5.22386 12 5 12.2239 5 12.5C5 12.7761 5.22386 13 5.5 13H7.5V15C7.5 15.2761 7.72386 15.5 8 15.5C8.27614 15.5 8.5 15.2761 8.5 15V13H10.5C10.7761 13 11 12.7761 11 12.5C11 12.2239 10.7761 12 10.5 12H8.5V10Z" fill="white"/>
</svg>
