<svg width="20" height="20" viewBox="0 0 20 20" fill="none" xmlns="http://www.w3.org/2000/svg">
    <rect width="20" height="20" rx="10" fill="#9CA3AF"/>
    <path d="M10.0001 7.37505C10.3283 7.37505 10.5944 7.10257 10.5944 6.76644C10.5944 6.43031 10.3283 6.15783 10.0001 6.15783C9.67188 6.15783 9.40581 6.43031 9.40581 6.76644C9.40581 7.10257 9.67188 7.37505 10.0001 7.37505ZM14.2787 12.8274V8.92699H14.345C14.9821 8.92699 15.2429 8.08899 14.7233 7.7115L10.5503 4.67957C10.2207 4.44015 9.77943 4.44014 9.44989 4.67956L5.27671 7.71149C4.75714 8.08897 5.01792 8.92699 5.65496 8.92699H5.72098V12.8274C5.29211 13.1086 5.00783 13.6008 5.00783 14.1611V15.1348C5.00783 15.3365 5.16748 15.5 5.36441 15.5H14.6353C14.8322 15.5 14.9919 15.3365 14.9919 15.1348V14.1611C14.9919 13.6008 14.7076 13.1086 14.2787 12.8274ZM9.86253 5.27523C9.94491 5.21537 10.0552 5.21537 10.1376 5.27523L14.1586 8.19665H11.7842L11.7827 8.19665L11.7812 8.19665H5.84144L9.86253 5.27523ZM13.5656 8.92699V12.5833C13.5264 12.5802 13.4867 12.5787 13.4467 12.5787H12.1393L12.1393 8.92699H13.5656ZM6.43413 12.5833V8.92699H7.86042L7.86042 12.5787H6.55299C6.51299 12.5787 6.47336 12.5802 6.43413 12.5833ZM6.55299 13.309H13.4467C13.9062 13.309 14.2787 13.6905 14.2787 14.1611V14.7697H5.72098V14.1611C5.72098 13.6905 6.09348 13.309 6.55299 13.309ZM9.64329 12.5787H8.57357L8.57357 8.92699H9.64329L9.64329 12.5787ZM10.3564 12.5787L10.3564 8.92699H11.4262L11.4262 12.5787H10.3564Z" fill="white"/>
</svg>
