<svg width="20" height="20" viewBox="0 0 20 20" fill="none" xmlns="http://www.w3.org/2000/svg">
    <rect width="20" height="20" rx="10" fill="#9CA3AF"/>
    <path d="M8.08824 7.79984C8.08824 8.40732 7.57468 8.89979 6.94118 8.89979C6.30767 8.89979 5.79412 8.40732 5.79412 7.79984C5.79412 7.19236 6.30767 6.69989 6.94118 6.69989C7.57468 6.69989 8.08824 7.19236 8.08824 7.79984ZM5.02941 10.1455C5.02941 9.76126 5.35425 9.44976 5.75496 9.44976H8.1274C8.5281 9.44976 8.85294 9.76126 8.85294 10.1455C8.85294 10.7668 8.412 11.3083 7.78346 11.459L7.73833 11.4698C7.21495 11.5953 6.6674 11.5953 6.14402 11.4698L6.0989 11.459C5.47035 11.3083 5.02941 10.7668 5.02941 10.1455ZM10.7647 7.43319C10.5535 7.43319 10.3824 7.59735 10.3824 7.79984C10.3824 8.00233 10.5535 8.16649 10.7647 8.16649H13.0588C13.27 8.16649 13.4412 8.00233 13.4412 7.79984C13.4412 7.59735 13.27 7.43319 13.0588 7.43319H10.7647ZM10.7647 9.63308C10.5535 9.63308 10.3824 9.79724 10.3824 9.99973C10.3824 10.2022 10.5535 10.3664 10.7647 10.3664H11.2434C11.3133 10.1062 11.4194 9.86004 11.5563 9.63308H10.7647ZM4.83824 12.5663H11.5563C11.6584 12.7356 11.7776 12.8941 11.9118 13.0399V13.2996H4.83824C4.09915 13.2996 3.5 12.725 3.5 12.0163V5.78327C3.5 5.07454 4.09915 4.5 4.83824 4.5H14.3971C15.1361 4.5 15.7353 5.07454 15.7353 5.78327V8.5589C15.4986 8.42761 15.2419 8.32586 14.9706 8.2589V5.78327C14.9706 5.47953 14.7138 5.2333 14.3971 5.2333H4.83824C4.52148 5.2333 4.26471 5.47953 4.26471 5.78327V12.0163C4.26471 12.32 4.52148 12.5663 4.83824 12.5663ZM16.5 11.0997C16.5 12.3146 15.4729 13.2996 14.2059 13.2996C12.9389 13.2996 11.9118 12.3146 11.9118 11.0997C11.9118 9.88471 12.9389 8.89979 14.2059 8.89979C15.4729 8.89979 16.5 9.88471 16.5 11.0997ZM15.7353 13.6405C15.2854 13.89 14.763 14.0329 14.2059 14.0329C13.6487 14.0329 13.1264 13.89 12.6765 13.6405V15.3164C12.6765 15.4586 12.838 15.5466 12.9654 15.4739L14.2059 14.7662L15.4464 15.4739C15.5738 15.5466 15.7353 15.4586 15.7353 15.3164V13.6405Z" fill="white"/>
</svg>
