<svg width="18" height="24" viewBox="0 0 18 24" fill="none" xmlns="http://www.w3.org/2000/svg">
    <path d="M18 8.5V17.75C18 19.5449 16.5449 21 14.75 21H3.25C1.45507 21 0 19.5449 0 17.75V8.5H18ZM4.25 15C3.55964 15 3 15.5596 3 16.25C3 16.9404 3.55964 17.5 4.25 17.5C4.94036 17.5 5.5 16.9404 5.5 16.25C5.5 15.5596 4.94036 15 4.25 15ZM9 15C8.30964 15 7.75 15.5596 7.75 16.25C7.75 16.9404 8.30964 17.5 9 17.5C9.69036 17.5 10.25 16.9404 10.25 16.25C10.25 15.5596 9.69036 15 9 15ZM4.25 10.5C3.55964 10.5 3 11.0596 3 11.75C3 12.4404 3.55964 13 4.25 13C4.94036 13 5.5 12.4404 5.5 11.75C5.5 11.0596 4.94036 10.5 4.25 10.5ZM9 10.5C8.30964 10.5 7.75 11.0596 7.75 11.75C7.75 12.4404 8.30964 13 9 13C9.69036 13 10.25 12.4404 10.25 11.75C10.25 11.0596 9.69036 10.5 9 10.5ZM13.75 10.5C13.0596 10.5 12.5 11.0596 12.5 11.75C12.5 12.4404 13.0596 13 13.75 13C14.4404 13 15 12.4404 15 11.75C15 11.0596 14.4404 10.5 13.75 10.5ZM14.75 3C16.5449 3 18 4.45507 18 6.25V7H0V6.25C0 4.45507 1.45507 3 3.25 3H14.75Z" fill="#4B5563"/>
</svg>
