<svg width="20" height="20" viewBox="0 0 20 20" fill="none" xmlns="http://www.w3.org/2000/svg">
    <rect width="20" height="20" rx="10" fill="#9CA3AF"/>
    <path d="M8.5 8.875C8.5 9.49632 7.99632 10 7.375 10C6.75368 10 6.25 9.49632 6.25 8.875C6.25 8.25368 6.75368 7.75 7.375 7.75C7.99632 7.75 8.5 8.25368 8.5 8.875ZM5.5 11.2741C5.5 10.8811 5.81859 10.5625 6.21159 10.5625H8.53841C8.93141 10.5625 9.25 10.8811 9.25 11.2741C9.25 11.9095 8.81754 12.4634 8.20108 12.6175L8.15682 12.6286C7.64351 12.7569 7.10649 12.7569 6.59318 12.6286L6.54892 12.6175C5.93246 12.4634 5.5 11.9095 5.5 11.2741ZM11.125 8.5C10.9179 8.5 10.75 8.66789 10.75 8.875C10.75 9.08211 10.9179 9.25 11.125 9.25H13.375C13.5821 9.25 13.75 9.08211 13.75 8.875C13.75 8.66789 13.5821 8.5 13.375 8.5H11.125ZM11.125 10.75C10.9179 10.75 10.75 10.9179 10.75 11.125C10.75 11.3321 10.9179 11.5 11.125 11.5H13.375C13.5821 11.5 13.75 11.3321 13.75 11.125C13.75 10.9179 13.5821 10.75 13.375 10.75H11.125ZM4 6.8125C4 6.08763 4.58763 5.5 5.3125 5.5H14.6875C15.4124 5.5 16 6.08763 16 6.8125V13.1875C16 13.9124 15.4124 14.5 14.6875 14.5H5.3125C4.58763 14.5 4 13.9124 4 13.1875V6.8125ZM5.3125 6.25C5.00184 6.25 4.75 6.50184 4.75 6.8125V13.1875C4.75 13.4982 5.00184 13.75 5.3125 13.75H14.6875C14.9982 13.75 15.25 13.4982 15.25 13.1875V6.8125C15.25 6.50184 14.9982 6.25 14.6875 6.25H5.3125Z" fill="white"/>
</svg>
