<svg width="20" height="20" viewBox="0 0 20 20" fill="none" xmlns="http://www.w3.org/2000/svg">
    <rect width="20" height="20" rx="10" fill="#9CA3AF"/>
    <path d="M10 9.64574C9.86655 9.64574 9.75141 9.72876 9.69816 9.84868L10.263 10.1476C10.3676 10.203 10.4633 10.2718 10.5487 10.3515H13.3333C13.5174 10.3515 13.6667 10.1935 13.6667 9.9986C13.6667 9.80372 13.5174 9.64574 13.3333 9.64574H10ZM7.66667 5.41144V8.94003C7.46237 8.94003 7.25807 8.9897 7.07038 9.08904L7 9.12629V5.41144C7 4.63192 7.59695 4 8.33333 4H11.3905C11.6557 4 11.9101 4.11153 12.0976 4.31005L14.7071 7.07238C14.8946 7.2709 15 7.54016 15 7.82091V13.8801C15 14.6596 14.403 15.2915 13.6667 15.2915H10.5516C10.7505 15.1047 10.8924 14.8587 10.9584 14.5858H13.6667C14.0349 14.5858 14.3333 14.2698 14.3333 13.8801V8.23431H12C11.4477 8.23431 11 7.76037 11 7.17573V4.70572H8.33333C7.96514 4.70572 7.66667 5.02168 7.66667 5.41144ZM13.3333 13.1743H11V12.4686H13.3333C13.5174 12.4686 13.6667 12.6266 13.6667 12.8215C13.6667 13.0164 13.5174 13.1743 13.3333 13.1743ZM13.3333 11.7629H11V11.41C11 11.2893 10.9854 11.1709 10.9577 11.0572H13.3333C13.5174 11.0572 13.6667 11.2152 13.6667 11.41C13.6667 11.6049 13.5174 11.7629 13.3333 11.7629ZM14.1953 7.52859L11.6667 4.85188V7.17573C11.6667 7.37061 11.8159 7.52859 12 7.52859H14.1953ZM9.96481 10.7788L7.96481 9.72025C7.77712 9.62091 7.55621 9.62091 7.36852 9.72025L5.36852 10.7788C5.14267 10.8984 5 11.1427 5 11.41V14.2357C5 14.503 5.14267 14.7474 5.36852 14.8669L7.36852 15.9255C7.55621 16.0248 7.77712 16.0248 7.96481 15.9255L9.96481 14.8669C10.1907 14.7474 10.3333 14.503 10.3333 14.2357V11.41C10.3333 11.1427 10.1907 10.8984 9.96481 10.7788ZM5.69362 11.5735C5.76614 11.3944 5.9621 11.3114 6.13131 11.3882L7.66667 12.0847L9.20203 11.3882C9.37124 11.3114 9.5672 11.3944 9.63972 11.5735C9.71223 11.7526 9.63385 11.9601 9.46464 12.0368L8 12.7013V14.5858C8 14.7807 7.85076 14.9387 7.66667 14.9387C7.48257 14.9387 7.33333 14.7807 7.33333 14.5858V12.7013L5.86869 12.0368C5.69948 11.9601 5.6211 11.7526 5.69362 11.5735Z" fill="white"/>
</svg>
