<svg width="20" height="20" viewBox="0 0 20 20" fill="none" xmlns="http://www.w3.org/2000/svg">
    <rect width="20" height="20" fill="white"/>
    <path d="M7.37076 8.55655C7.4046 8.33474 7.62456 8.125 7.93599 8.125C8.24743 8.125 8.46739 8.33474 8.50122 8.55655C8.53245 8.76129 8.72374 8.90194 8.92848 8.87071C9.13322 8.83948 9.27388 8.64819 9.24265 8.44345C9.14716 7.81747 8.57832 7.375 7.93599 7.375C7.29366 7.375 6.72483 7.81747 6.62934 8.44345C6.59811 8.64819 6.73877 8.83948 6.9435 8.87071C7.14824 8.90194 7.33953 8.76129 7.37076 8.55655ZM12.061 8.125C11.7496 8.125 11.5296 8.33474 11.4958 8.55655C11.4645 8.76129 11.2732 8.90194 11.0685 8.87071C10.8638 8.83948 10.7231 8.64819 10.7543 8.44345C10.8498 7.81747 11.4187 7.375 12.061 7.375C12.7033 7.375 13.2722 7.81747 13.3676 8.44345C13.3989 8.64819 13.2582 8.83948 13.0535 8.87071C12.8487 8.90194 12.6575 8.76129 12.6262 8.55655C12.5924 8.33474 12.3724 8.125 12.061 8.125ZM6.62152 10C6.51572 10 6.41485 10.0447 6.34377 10.1231C6.27269 10.2014 6.23801 10.3062 6.2483 10.4115C6.42728 12.2439 7.86569 13.75 9.99652 13.75C12.1273 13.75 13.5657 12.2439 13.7447 10.4115C13.755 10.3062 13.7204 10.2014 13.6493 10.1231C13.5782 10.0447 13.4773 10 13.3715 10H6.62152ZM9.99652 13C8.43525 13 7.35943 12.0229 7.06237 10.75H12.9307C12.6336 12.0229 11.5578 13 9.99652 13ZM10 4C6.68629 4 4 6.68629 4 10C4 13.3137 6.68629 16 10 16C13.3137 16 16 13.3137 16 10C16 6.68629 13.3137 4 10 4ZM4.75 10C4.75 7.1005 7.1005 4.75 10 4.75C12.8995 4.75 15.25 7.1005 15.25 10C15.25 12.8995 12.8995 15.25 10 15.25C7.1005 15.25 4.75 12.8995 4.75 10Z" fill="#9CA3AF"/>
</svg>
