<svg width="17" height="21" viewBox="0 0 17 21" fill="none" xmlns="http://www.w3.org/2000/svg">
    <path d="M15.0738 10.2324H1.92536C1.72614 10.2324 1.55776 10.1616 1.4202 10.02C1.28265 9.87842 1.21387 9.70508 1.21387 9.5C1.21387 9.29492 1.28265 9.12158 1.4202 8.97998C1.55776 8.83838 1.72614 8.76758 1.92536 8.76758H15.0738C15.273 8.76758 15.4414 8.83838 15.579 8.97998C15.7165 9.12158 15.7853 9.29492 15.7853 9.5C15.7853 9.70508 15.7165 9.87842 15.579 10.02C15.4414 10.1616 15.273 10.2324 15.0738 10.2324ZM15.0738 5.86719H1.92536C1.72614 5.86719 1.55776 5.79639 1.4202 5.65479C1.28265 5.51318 1.21387 5.34473 1.21387 5.14941C1.21387 4.94434 1.28265 4.771 1.4202 4.62939C1.55776 4.48779 1.72614 4.41699 1.92536 4.41699H15.0738C15.273 4.41699 15.4414 4.48779 15.579 4.62939C15.7165 4.771 15.7853 4.94434 15.7853 5.14941C15.7853 5.34473 15.7165 5.51318 15.579 5.65479C15.4414 5.79639 15.273 5.86719 15.0738 5.86719ZM15.0738 14.583H1.92536C1.72614 14.583 1.55776 14.5122 1.4202 14.3706C1.28265 14.229 1.21387 14.0557 1.21387 13.8506C1.21387 13.6553 1.28265 13.4868 1.4202 13.3452C1.55776 13.2036 1.72614 13.1328 1.92536 13.1328H15.0738C15.273 13.1328 15.4414 13.2036 15.579 13.3452C15.7165 13.4868 15.7853 13.6553 15.7853 13.8506C15.7853 14.0557 15.7165 14.229 15.579 14.3706C15.4414 14.5122 15.273 14.583 15.0738 14.583Z" fill="#4B5563"/>
</svg>
