<svg width="20" height="20" viewBox="0 0 20 20" fill="none" xmlns="http://www.w3.org/2000/svg">
    <rect width="20" height="20" fill="white"/>
    <path d="M10.5 12.25C11.8556 12.25 12.9545 11.2426 12.9545 9.99999V6.25C12.9545 5.00736 11.8556 4 10.5 4C9.14439 4 8.04545 5.00736 8.04545 6.25V9.99999C8.04545 11.2426 9.14439 12.25 10.5 12.25ZM10.5 11.5C9.59626 11.5 8.86364 10.8284 8.86364 9.99999V6.25C8.86364 5.42157 9.59626 4.75 10.5 4.75C11.4037 4.75 12.1364 5.42157 12.1364 6.25V9.99999C12.1364 10.8284 11.4037 11.5 10.5 11.5ZM6.40909 9.62499C6.63503 9.62499 6.81818 9.79289 6.81818 9.99999C6.81818 11.864 8.46659 13.375 10.5 13.375C12.5334 13.375 14.1818 11.864 14.1818 9.99999C14.1818 9.79289 14.365 9.62499 14.5909 9.62499C14.8168 9.62499 15 9.79289 15 9.99999C15 12.1518 13.2027 13.9187 10.9091 14.1082V15.625C10.9091 15.8321 10.7259 16 10.5 16C10.2741 16 10.0909 15.8321 10.0909 15.625V14.1082C7.79734 13.9187 6 12.1518 6 9.99999C6 9.79289 6.18316 9.62499 6.40909 9.62499Z" fill="#9CA3AF"/>
</svg>
