<svg width="14" height="15" viewBox="0 0 14 15" fill="none" xmlns="http://www.w3.org/2000/svg">
    <rect y="0.5" width="14" height="14" rx="7" fill="#009DDF" style="mix-blend-mode:multiply"/>
    <path d="M10.0621 9.47536C10.0621 7.45621 8.40835 7.22612 7.07962 7.04154C5.63149 6.8399 4.8121 6.66529 4.8121 5.41842C4.8121 4.37148 5.90896 4 6.84814 4C7.31624 3.98486 7.78124 4.08121 8.20479 4.28111C8.62834 4.481 8.99831 4.77872 9.28418 5.14971L9.96502 4.60029C9.65886 4.20663 9.27792 3.87736 8.84409 3.63141C8.41026 3.38545 7.93211 3.22765 7.4371 3.16709V1.8125H6.5621V3.13462C4.98045 3.23052 3.9371 4.12337 3.9371 5.41837C3.9371 7.48775 5.61272 7.72081 6.95913 7.90775C8.3821 8.10585 9.1871 8.2763 9.1871 9.47536C9.1871 10.802 7.81659 11 6.9996 11C5.49924 11 4.86539 10.5783 4.27752 9.85029L3.59668 10.3997C3.94353 10.8567 4.39213 11.2267 4.90688 11.4801C5.42163 11.7335 5.98836 11.8634 6.5621 11.8596V13.1875H7.4371V11.8554C9.06705 11.7223 10.0621 10.8372 10.0621 9.47536Z" fill="#F9FAFB"/>
</svg>
