<svg width="20" height="20" viewBox="0 0 20 20" fill="none" xmlns="http://www.w3.org/2000/svg">
    <path d="M0 10C0 4.47715 4.47715 0 10 0C15.5228 0 20 4.47715 20 10C20 15.5228 15.5228 20 10 20C8.27517 20 6.65075 19.5628 5.23325 18.7928L1.11546 19.9638C0.456098 20.1513 -0.153014 19.5422 0.0344874 18.8829L1.20574 14.7641C0.436655 13.3472 0 11.7238 0 10ZM6 8.125C6 8.47018 6.27982 8.75 6.625 8.75H13.375C13.7202 8.75 14 8.47018 14 8.125C14 7.77982 13.7202 7.5 13.375 7.5H6.625C6.27982 7.5 6 7.77982 6 8.125ZM6.625 11.25C6.27982 11.25 6 11.5298 6 11.875C6 12.2202 6.27982 12.5 6.625 12.5H11.375C11.7202 12.5 12 12.2202 12 11.875C12 11.5298 11.7202 11.25 11.375 11.25H6.625Z" fill="white"/>
</svg>
