<svg width="14" height="21" viewBox="0 0 14 21" fill="none" xmlns="http://www.w3.org/2000/svg">
    <g clip-path="url(#clip0_329_5294)">
        <path d="M6.9979 2.5C10.1469 2.5 12.7418 4.83488 12.9824 7.8554L12.9958 8.07762L13.0003 8.30214L12.9993 11.898L13.9247 14.1202C13.9472 14.1743 13.9649 14.2302 13.9776 14.2871L13.9929 14.3733L14.0015 14.5046C14.0015 14.9526 13.705 15.3387 13.2524 15.4677L13.136 15.4945L13.0015 15.5046L9.49986 15.504L9.49488 15.6653C9.40977 16.969 8.32542 18 7.00026 18C5.67478 18 4.59022 16.9685 4.50558 15.6644L4.49986 15.504L0.999153 15.5046C0.911201 15.5046 0.823829 15.493 0.739266 15.4702L0.614807 15.4277C0.204025 15.2567 -0.0379439 14.8392 0.0124571 14.3757L0.0335445 14.2483L0.0759637 14.1202L0.99926 11.901L1.00035 8.29281L1.00465 8.06824C1.12726 4.95115 3.77129 2.5 6.9979 2.5ZM8.49986 15.504H5.49986L5.50722 15.6454C5.57576 16.3581 6.143 16.925 6.8558 16.9931L7.00026 17C7.77996 17 8.42071 16.4051 8.49339 15.6445L8.49986 15.504ZM6.9979 3.5C4.37535 3.5 2.22741 5.42372 2.0174 7.88498L2.00417 8.09723L2.00026 8.30214V12L1.96185 12.1922L0.999142 14.5046L12.9569 14.5066L13.0021 14.5045L12.0387 12.1922L12.0003 12L12.0004 8.31241L11.9963 8.10831C11.8911 5.5349 9.6949 3.5 6.9979 3.5Z" fill="#4B5563"/>
        <path d="M14 4.5C14 6.15685 12.6569 7.5 11 7.5C9.34315 7.5 8 6.15685 8 4.5C8 2.84315 9.34315 1.5 11 1.5C12.6569 1.5 14 2.84315 14 4.5Z" fill="#FF3D32"/>
    </g>
    <defs>
        <clipPath id="clip0_329_5294">
            <rect width="14" height="20" fill="white" transform="translate(0 0.5)"/>
        </clipPath>
    </defs>
</svg>
