<svg width="14" height="16" viewBox="0 0 14 16" fill="none" xmlns="http://www.w3.org/2000/svg">
    <path d="M6.9979 0.5C10.1469 0.5 12.7418 2.83488 12.9824 5.8554L12.9958 6.07762L13.0003 6.30214L12.9993 9.898L13.9247 12.1202C13.9472 12.1743 13.9649 12.2302 13.9776 12.2871L13.9929 12.3733L14.0015 12.5046C14.0015 12.9526 13.705 13.3387 13.2524 13.4677L13.136 13.4945L13.0015 13.5046L9.49986 13.504L9.49488 13.6653C9.40977 14.969 8.32542 16 7.00026 16C5.67478 16 4.59022 14.9685 4.50558 13.6644L4.49986 13.504L0.999153 13.5046C0.911201 13.5046 0.823829 13.493 0.739266 13.4702L0.614807 13.4277C0.204025 13.2567 -0.0379439 12.8392 0.0124571 12.3757L0.0335445 12.2483L0.0759637 12.1202L0.99926 9.901L1.00035 6.29281L1.00465 6.06824C1.12726 2.95115 3.77129 0.5 6.9979 0.5ZM8.49986 13.504H5.49986L5.50722 13.6454C5.57576 14.3581 6.143 14.925 6.8558 14.9931L7.00026 15C7.77996 15 8.42071 14.4051 8.49339 13.6445L8.49986 13.504ZM6.9979 1.5C4.37535 1.5 2.22741 3.42372 2.0174 5.88498L2.00417 6.09723L2.00026 6.30214V10L1.96185 10.1922L0.999142 12.5046L12.9569 12.5066L13.0021 12.5045L12.0387 10.1922L12.0003 10L12.0004 6.31241L11.9963 6.10831C11.8911 3.5349 9.6949 1.5 6.9979 1.5Z" fill="#4B5563"/>
</svg>
