<svg width="15" height="15" viewBox="0 0 15 15" fill="none" xmlns="http://www.w3.org/2000/svg">
    <g clip-path="url(#clip0_525_13595)">
        <path d="M7.5 0.499931C8.14258 0.499931 8.76237 0.581962 9.35938 0.746025C9.95638 0.910087 10.5146 1.14479 11.0342 1.45013C11.5537 1.75546 12.0254 2.12005 12.4492 2.54388C12.873 2.9677 13.2376 3.44166 13.543 3.96575C13.8483 4.48984 14.083 5.04811 14.2471 5.64056C14.4111 6.233 14.4954 6.8528 14.5 7.49993C14.5 8.14251 14.418 8.7623 14.2539 9.35931C14.0898 9.95631 13.8551 10.5146 13.5498 11.0341C13.2445 11.5536 12.8799 12.0253 12.4561 12.4491C12.0322 12.873 11.5583 13.2376 11.0342 13.5429C10.5101 13.8482 9.95182 14.0829 9.35938 14.247C8.76693 14.4111 8.14714 14.4954 7.5 14.4999C6.71615 14.4999 5.96419 14.3746 5.24414 14.124C4.52409 13.8733 3.86556 13.5224 3.26855 13.0712C2.67155 12.62 2.15658 12.0777 1.72363 11.4443C1.29069 10.8108 0.969401 10.1181 0.759766 9.36614L1.60059 9.13372C1.78288 9.79453 2.06315 10.3984 2.44141 10.9452C2.81966 11.4921 3.27083 11.9661 3.79492 12.3671C4.31901 12.7682 4.89551 13.0758 5.52441 13.29C6.15332 13.5042 6.81185 13.6158 7.5 13.6249C8.06055 13.6249 8.60059 13.552 9.12012 13.4062C9.63965 13.2603 10.1273 13.0553 10.583 12.7909C11.0387 12.5266 11.4535 12.2053 11.8271 11.8271C12.2008 11.4488 12.5199 11.0364 12.7842 10.5898C13.0485 10.1432 13.2559 9.65553 13.4062 9.12688C13.5566 8.59824 13.6296 8.05592 13.625 7.49993C13.625 6.93938 13.5521 6.39934 13.4062 5.87981C13.2604 5.36028 13.0553 4.87265 12.791 4.41692C12.5267 3.96119 12.2054 3.54648 11.8271 3.17278C11.4489 2.79908 11.0365 2.48007 10.5898 2.21575C10.1432 1.95143 9.6556 1.74407 9.12695 1.59368C8.59831 1.44329 8.05599 1.37037 7.5 1.37493C6.91211 1.37493 6.34017 1.45696 5.78418 1.62102C5.22819 1.78509 4.71094 2.01979 4.23242 2.32513C3.75391 2.63046 3.31868 2.99733 2.92676 3.42571C2.53483 3.8541 2.21582 4.33717 1.96973 4.87493H4V5.74993H0.5V2.24993H1.375V4.12298C1.68034 3.56243 2.05176 3.05885 2.48926 2.61224C2.92676 2.16562 3.40983 1.78737 3.93848 1.47747C4.46712 1.16757 5.03451 0.926038 5.64062 0.752861C6.24674 0.579684 6.86654 0.495374 7.5 0.499931Z" fill="#009DDF"/>
    </g>
    <defs>
        <clipPath id="clip0_525_13595">
            <rect width="14" height="14" fill="white" transform="translate(0.5 0.5)"/>
        </clipPath>
    </defs>
</svg>
