<svg width="15" height="15" viewBox="0 0 15 15" fill="none" xmlns="http://www.w3.org/2000/svg">
    <g clip-path="url(#clip0_525_13595)">
        <path d="M7.5 0.499931C6.85742 0.499931 6.23763 0.581962 5.64062 0.746025C5.04362 0.910087 4.48535 1.14479 3.96582 1.45013C3.44629 1.75546 2.97461 2.12005 2.55078 2.54388C2.12695 2.9677 1.76237 3.44166 1.45703 3.96575C1.15169 4.48984 0.916992 5.04811 0.75293 5.64056C0.588867 6.233 0.504558 6.8528 0.5 7.49993C0.5 8.14251 0.582031 8.7623 0.746094 9.35931C0.910156 9.95631 1.14486 10.5146 1.4502 11.0341C1.75553 11.5536 2.12012 12.0253 2.54395 12.4491C2.96777 12.873 3.44173 13.2376 3.96582 13.5429C4.48991 13.8482 5.04818 14.0829 5.64062 14.247C6.23307 14.4111 6.85286 14.4954 7.5 14.4999C8.28385 14.4999 9.03581 14.3746 9.75586 14.124C10.4759 13.8733 11.1344 13.5224 11.7314 13.0712C12.3285 12.62 12.8434 12.0777 13.2764 11.4443C13.7093 10.8108 14.0306 10.1181 14.2402 9.36614L13.3994 9.13372C13.2171 9.79453 12.9368 10.3984 12.5586 10.9452C12.1803 11.4921 11.7292 11.9661 11.2051 12.3671C10.681 12.7682 10.1045 13.0758 9.47559 13.29C8.84668 13.5042 8.18815 13.6158 7.5 13.6249C6.93945 13.6249 6.39941 13.552 5.87988 13.4062C5.36035 13.2603 4.87272 13.0553 4.41699 12.7909C3.96126 12.5266 3.54655 12.2053 3.17285 11.8271C2.79915 11.4488 2.48014 11.0364 2.21582 10.5898C1.9515 10.1432 1.74414 9.65553 1.59375 9.12688C1.44336 8.59824 1.37044 8.05592 1.375 7.49993C1.375 6.93938 1.44792 6.39934 1.59375 5.87981C1.73958 5.36028 1.94466 4.87265 2.20898 4.41692C2.47331 3.96119 2.7946 3.54648 3.17285 3.17278C3.55111 2.79908 3.96354 2.48007 4.41016 2.21575C4.85677 1.95143 5.3444 1.74407 5.87305 1.59368C6.40169 1.44329 6.94401 1.37037 7.5 1.37493C8.08789 1.37493 8.65983 1.45696 9.21582 1.62102C9.77181 1.78509 10.2891 2.01979 10.7676 2.32513C11.2461 2.63046 11.6813 2.99733 12.0732 3.42571C12.4652 3.8541 12.7842 4.33717 13.0303 4.87493H11V5.74993H14.5V2.24993H13.625V4.12298C13.3197 3.56243 12.9482 3.05885 12.5107 2.61224C12.0732 2.16562 11.5902 1.78737 11.0615 1.47747C10.5329 1.16757 9.96549 0.926038 9.35938 0.752861C8.75326 0.579684 8.13346 0.495374 7.5 0.499931Z" fill="#009DDF"/>
    </g>
    <defs>
        <clipPath id="clip0_525_13595">
            <rect width="14" height="14" fill="white" transform="matrix(-1 0 0 1 14.5 0.5)"/>
        </clipPath>
    </defs>
</svg>
