<svg width="40" height="40" viewBox="0 0 40 40" fill="none" xmlns="http://www.w3.org/2000/svg">
    <path d="M20 40C8.9543 40 0 31.0457 0 20C0 8.9543 8.9543 0 20 0C31.0457 0 40 8.9543 40 20C40 31.0457 31.0457 40 20 40ZM26.541 17.5H24C23.1716 17.5 22.5 18.1716 22.5 19C22.5 19.8284 23.1716 20.5 24 20.5H29.5C30.3284 20.5 31 19.8284 31 19V12.5C31 11.6716 30.3284 11 29.5 11C28.6716 11 28 11.6716 28 12.5V13.9991C26.1758 11.5706 23.272 10 20.0002 10C16.9265 10 14.1919 11.3207 12.3464 13.5412C11.8169 14.1784 11.9042 15.1241 12.5413 15.6536C13.1784 16.1831 14.1241 16.0959 14.6536 15.4588C15.9265 13.9272 17.814 13 20.0002 13C22.9848 13 25.5348 14.8688 26.541 17.5ZM12 27.5V26.0001C13.8239 28.4285 16.7275 30 20.0002 30C23.0505 30 25.8083 28.6321 27.6429 26.4741C28.1794 25.8429 28.1028 24.8962 27.4716 24.3597C26.8404 23.8231 25.8938 23.8998 25.3572 24.5309C24.0736 26.0409 22.1415 27 20.0002 27C17.2093 27 14.7972 25.3657 13.6734 23H16C16.8284 23 17.5 22.3284 17.5 21.5C17.5 20.6716 16.8284 20 16 20H10.5C9.67157 20 9 20.6716 9 21.5V27.5C9 28.3284 9.67157 29 10.5 29C11.3284 29 12 28.3284 12 27.5Z" fill="#009DDF"/>
</svg>
