<svg width="20" height="20" viewBox="0 0 20 20" fill="none" xmlns="http://www.w3.org/2000/svg">
    <rect width="20" height="20" fill="white"/>
    <path d="M5.74329 10.3332L10.6694 5.57892C11.6896 4.59428 13.3438 4.59428 14.364 5.57892C15.3842 6.56357 15.3842 8.15998 14.364 9.14462L8.51424 14.7903C8.00412 15.2826 7.17706 15.2826 6.66694 14.7903C6.15682 14.298 6.15682 13.4998 6.66694 13.0075L11.9009 7.95606C12.071 7.79195 12.071 7.52588 11.9009 7.36177C11.7309 7.19767 11.4552 7.19767 11.2852 7.36177L6.05118 12.4132C5.20098 13.2337 5.20098 14.5641 6.05118 15.3846C6.90137 16.2051 8.27981 16.2051 9.13 15.3846L14.9798 9.73891C16.3401 8.42605 16.3401 6.2975 14.9798 4.98464C13.6195 3.67179 11.414 3.67179 10.0536 4.98464L5.12753 9.73891C4.95749 9.90301 4.95749 10.1691 5.12753 10.3332C5.29757 10.4973 5.57326 10.4973 5.74329 10.3332Z" fill="#9CA3AF"/>
</svg>
