<svg width="40" height="40" viewBox="0 0 40 40" fill="none" xmlns="http://www.w3.org/2000/svg">
    <rect x="40" y="40" width="40" height="40" rx="20" transform="rotate(-180 40 40)" fill="#009DDF"/>
    <path d="M10.7201 20.7891C10.8507 20.658 11.006 20.554 11.1769 20.4831C11.3478 20.4121 11.5311 20.3755 11.7162 20.3755C11.9013 20.3755 12.0845 20.4121 12.2555 20.4831C12.4264 20.554 12.5816 20.658 12.7123 20.7891L18.7463 26.8231L18.7463 9.59657C18.7463 9.22361 18.8944 8.86592 19.1581 8.6022C19.4219 8.33848 19.7796 8.19032 20.1525 8.19032C20.5255 8.19032 20.8832 8.33848 21.1469 8.6022C21.4106 8.86592 21.5588 9.22361 21.5588 9.59657L21.5588 26.8231L27.5951 20.7891C27.8593 20.525 28.2176 20.3766 28.5912 20.3766C28.9648 20.3766 29.3231 20.525 29.5873 20.7891C29.8515 21.0533 29.9999 21.4116 29.9999 21.7852C29.9999 22.1589 29.8515 22.5172 29.5873 22.7813L21.1498 31.2188C21.0191 31.3499 20.8639 31.454 20.693 31.5249C20.522 31.5959 20.3388 31.6324 20.1537 31.6324C19.9686 31.6324 19.7853 31.5959 19.6144 31.5249C19.4435 31.454 19.2882 31.3499 19.1576 31.2188L10.7201 22.7813C10.589 22.6507 10.485 22.4955 10.414 22.3245C10.343 22.1536 10.3065 21.9703 10.3065 21.7852C10.3065 21.6002 10.343 21.4169 10.414 21.246C10.485 21.075 10.589 20.9198 10.7201 20.7891Z" fill="white"/>
</svg>
