<svg width="20" height="20" viewBox="0 0 20 20" fill="none" xmlns="http://www.w3.org/2000/svg">
    <path d="M20 10C20 4.47715 15.5228 0 10 0C4.47715 0 0 4.47715 0 10C0 15.5228 4.47715 20 10 20C15.5228 20 20 15.5228 20 10ZM9.38507 8.63765C9.43799 8.34608 9.69318 8.12499 10 8.12499C10.3068 8.12499 10.562 8.34608 10.6149 8.63765L10.625 8.74999V14.3777L10.6149 14.49C10.562 14.7816 10.3068 15.0027 10 15.0027C9.69318 15.0027 9.43799 14.7816 9.38507 14.49L9.375 14.3777V8.74999L9.38507 8.63765ZM9.0625 5.93749C9.0625 5.41972 9.48223 4.99999 10 4.99999C10.5178 4.99999 10.9375 5.41972 10.9375 5.93749C10.9375 6.45526 10.5178 6.87499 10 6.87499C9.48223 6.87499 9.0625 6.45526 9.0625 5.93749Z" fill="#EAB308"/>
</svg>
