<svg width="24" height="24" viewBox="0 0 24 24" fill="none" xmlns="http://www.w3.org/2000/svg">
    <path d="M2.04004 12C2.04004 6.477 6.51604 2 12.04 2C17.562 2 22.04 6.477 22.04 12C22.04 17.523 17.562 22 12.04 22C6.51604 22 2.04004 17.523 2.04004 12Z" fill="#FC3F1D"/>
    <path d="M13.3202 7.66606H12.3962C10.7022 7.66606 9.81123 8.52406 9.81123 9.78906C9.81123 11.2191 10.4272 11.8891 11.6922 12.7481L12.7372 13.4521L9.73423 17.9391H7.49023L10.1852 13.9251C8.63524 12.8141 7.76523 11.7351 7.76523 9.91006C7.76523 7.62206 9.36023 6.06006 12.3852 6.06006H15.3882V17.9281H13.3202V7.66606Z" fill="white"/>
</svg>
